<?xml version="1.0" encoding="UTF-8" standalone="no"?>
<!-- Created with Inkscape (http://www.inkscape.org/) -->

<svg
   xmlns:dc="http://purl.org/dc/elements/1.1/"
   xmlns:cc="http://creativecommons.org/ns#"
   xmlns:rdf="http://www.w3.org/1999/02/22-rdf-syntax-ns#"
   xmlns:svg="http://www.w3.org/2000/svg"
   xmlns="http://www.w3.org/2000/svg"
   xmlns:sodipodi="http://sodipodi.sourceforge.net/DTD/sodipodi-0.dtd"
   xmlns:inkscape="http://www.inkscape.org/namespaces/inkscape"
   width="75.917778mm"
   height="67.692513mm"
   viewBox="0 0 269 239.85536"
   id="svg4343"
   version="1.1"
   inkscape:version="0.91 r13725"
   sodipodi:docname="my-flag-01-vec.svg">
  <defs
     id="defs4345" />
  <sodipodi:namedview
     id="base"
     pagecolor="#ffffff"
     bordercolor="#666666"
     borderopacity="1.0"
     inkscape:pageopacity="0.0"
     inkscape:pageshadow="2"
     inkscape:zoom="1.979899"
     inkscape:cx="181.68986"
     inkscape:cy="32.378708"
     inkscape:document-units="px"
     inkscape:current-layer="layer1"
     showgrid="true"
     inkscape:window-width="1920"
     inkscape:window-height="1017"
     inkscape:window-x="-8"
     inkscape:window-y="-8"
     inkscape:window-maximized="1"
     showborder="true"
     fit-margin-top="0"
     fit-margin-left="0"
     fit-margin-right="0"
     fit-margin-bottom="0">
    <inkscape:grid
       type="xygrid"
       id="grid4931"
       originx="-28.357144"
       originy="-791.50088" />
  </sodipodi:namedview>
  <metadata
     id="metadata4348">
    <rdf:RDF>
      <cc:Work
         rdf:about="">
        <dc:format>image/svg+xml</dc:format>
        <dc:type
           rdf:resource="http://purl.org/dc/dcmitype/StillImage" />
        <dc:title></dc:title>
      </cc:Work>
    </rdf:RDF>
  </metadata>
  <g
     inkscape:label="Layer 1"
     inkscape:groupmode="layer"
     id="layer1"
     transform="translate(-28.357144,-21.005954)">
    <g
       id="g4906">
      <path
         d="m 40.157144,259.79847 c -1.7,-0.9 -1.8,-6.8 -1.8,-101.4 l 0,-100.400004 -2.9,-2 c -3.9,-2.8 -7.1,-9.7 -7.1,-15.2 0.1,-16.7 19.4,-25.9 32.1,-15.2 9,7.6 8.9,23.9 -0.2,30.4 l -2.9,2 0,100.400004 c 0,98.3 0,100.5 -1.9,101.5 -2.5,1.3 -13.1,1.3 -15.3,-0.1 z"
         id="path4262"
         inkscape:connector-curvature="0"
         style="fill:#f9f9f9;fill-opacity:1;stroke:none" />
      <path
         d="m 73.757144,199.89847 c -5.6,-2.2 -5.4,-0.2 -5.4,-67.3 l 0,-61.800004 2.5,-2.5 c 3.4,-3.4 30.499996,-16.4 42.199996,-20.3 15.2,-5 24.4,-6.6 38.8,-6.5 19.6,0.1 31.9,3.2 56,14.2 10.8,4.9 12.9,5.5 20.6,5.9 12.2,0.7 20.5,-1.7 41.5,-12.3 18.6,-9.4 20.2,-9.7 25,-4.9 l 2.4,2.4 0,63.300004 c 0,56.1 -0.2,63.6 -1.6,65.6 -3.2,4.6 -30.3,16.5 -45.9,20.3 -9.6,2.2 -23.5,2.6 -31.1,0.8 -2.7,-0.6 -10.5,-3.8 -17.4,-7.1 -6.9,-3.3 -15,-6.9 -18,-8 -25.9,-9.1 -54,-5.3 -89.999996,12.3 -14.4,7 -15.8,7.4 -19.6,5.9 z m 174.899996,-23.6 c 6.6,-1.6 21,-7.5 26.5,-10.7 l 3.2,-1.9 0,-47.9 c 0,-26.300004 -0.2,-47.900004 -0.4,-47.900004 -0.2,0 -4.1,1.8 -8.7,3.9 -19.3,9 -38.7,12.1 -52.4,8.3 -3.8,-1.1 -11.9,-4.2 -18,-7 -19.8,-9 -32.5,-12.2 -48,-12.2 -16,0.1 -33,4.7 -52.499996,14.4 l -10.5,5.1 -0.3,46.800004 c -0.1,28 0.1,46.7 0.7,46.7 0.5,0 4.5,-1.5 8.8,-3.3 18.499996,-8 36.099996,-12.4 52.899996,-13.3 19.4,-1.2 32.5,1.9 55.4,12.8 6.9,3.3 14.8,6.6 17.5,7.4 5.9,1.7 16.7,1.2 25.8,-1.2 z"
         id="path4286"
         inkscape:connector-curvature="0"
         style="fill:#f9f9f9;fill-opacity:1;stroke:none" />
      <path
         d="m 222.85714,177.49847 c -2.7,-0.8 -10.6,-4.1 -17.5,-7.4 -22.9,-10.9 -36,-14 -55.4,-12.8 -16.8,0.9 -34.4,5.3 -52.899996,13.3 -4.3,1.8 -8.3,3.3 -8.8,3.3 -0.6,0 -0.8,-18.7 -0.7,-46.7 l 0.3,-46.800004 10.5,-5.1 c 19.499996,-9.7 36.499996,-14.3 52.499996,-14.4 15.5,0 28.2,3.2 48,12.2 6.1,2.8 14.2,5.9 18,7 13.7,3.8 33.1,0.7 52.4,-8.3 4.6,-2.1 8.5,-3.9 8.7,-3.9 0.2,0 0.4,21.6 0.4,47.900004 l 0,47.9 -3.2,1.9 c -5.5,3.2 -19.9,9.1 -26.5,10.7 -9.1,2.4 -19.9,2.9 -25.8,1.2 z"
         id="path4299"
         inkscape:connector-curvature="0"
         style="fill:#e4e4e4;stroke:none" />
    </g>
  </g>
</svg>
