<?xml version="1.0" encoding="UTF-8" standalone="no"?>
<!-- Generator: Adobe Illustrator 16.0.0, SVG Export Plug-In . SVG Version: 6.00 Build 0)  -->

<svg
   xmlns:dc="http://purl.org/dc/elements/1.1/"
   xmlns:cc="http://creativecommons.org/ns#"
   xmlns:rdf="http://www.w3.org/1999/02/22-rdf-syntax-ns#"
   xmlns:svg="http://www.w3.org/2000/svg"
   xmlns="http://www.w3.org/2000/svg"
   xmlns:sodipodi="http://sodipodi.sourceforge.net/DTD/sodipodi-0.dtd"
   xmlns:inkscape="http://www.inkscape.org/namespaces/inkscape"
   version="1.1"
   id="Layer_1"
   x="0px"
   y="0px"
   width="113.62199"
   height="218.79498"
   viewBox="0 0 113.62198 218.795"
   enable-background="new 0 0 266.893 266.895"
   xml:space="preserve"
   inkscape:version="0.91 r13725"
   sodipodi:docname="ori-fb-vec-03-white.svg"><metadata
     id="metadata9"><rdf:RDF><cc:Work
         rdf:about=""><dc:format>image/svg+xml</dc:format><dc:type
           rdf:resource="http://purl.org/dc/dcmitype/StillImage" /><dc:title></dc:title></cc:Work></rdf:RDF></metadata><defs
     id="defs7"><clipPath
       clipPathUnits="userSpaceOnUse"
       id="clipPath4137"><path
         id="path4139"
         d="m 182.409,262.307 0,-99.803 33.499,0 5.016,-38.895 -38.515,0 0,-24.832 c 0,-11.261 3.127,-18.935 19.275,-18.935 l 20.596,-0.009 0,-34.788 c -3.562,-0.474 -15.788,-1.533 -30.012,-1.533 -29.695,0 -50.025,18.126 -50.025,51.413 l 0,28.684 -33.585,0 0,38.895 33.585,0 0,99.803 40.166,0 z"
         inkscape:connector-curvature="0"
         style="fill:#ffffff" /></clipPath></defs><sodipodi:namedview
     pagecolor="#ffffff"
     bordercolor="#666666"
     borderopacity="1"
     objecttolerance="10"
     gridtolerance="10"
     guidetolerance="10"
     inkscape:pageopacity="0"
     inkscape:pageshadow="2"
     inkscape:window-width="1920"
     inkscape:window-height="1017"
     id="namedview5"
     showgrid="false"
     inkscape:zoom="5.0020332"
     inkscape:cx="21.037723"
     inkscape:cy="124.53349"
     inkscape:window-x="-8"
     inkscape:window-y="-8"
     inkscape:window-maximized="1"
     inkscape:current-layer="Layer_1"
     fit-margin-top="0"
     fit-margin-left="0"
     fit-margin-right="0"
     fit-margin-bottom="0" /><path
     id="Blue_1_"
     d="m 248.082,262.307 c 7.854,0 14.223,-6.369 14.223,-14.225 l 0,-229.27 c 0,-7.857 -6.368,-14.224 -14.223,-14.224 l -229.27,0 c -7.857,0 -14.224,6.367 -14.224,14.224 l 0,229.27 c 0,7.855 6.366,14.225 14.224,14.225 l 229.27,0 z"
     clip-path="url(#clipPath4137)"
     inkscape:connector-curvature="0"
     transform="translate(-108.658,-43.512)"
     style="fill:#3c5a99" /><path
     style="fill:#ffffff;fill-rule:nonzero"
     d="m 33.835788,167.96834 0,-49.76008 -16.398209,0 -16.3982091,0 0,-18.660029 0,-18.660031 16.3982091,0 16.398209,0 0.0085,-16.680937 C 33.84903,55.032748 34.380387,44.218411 35.025125,40.175405 38.225519,20.106449 51.497189,5.9410751 70.928787,1.8540195 77.548442,0.46170484 95.259459,0.19243539 106.0482,1.3200815 l 6.95136,0.726561 0,16.6889895 0,16.688988 -14.62036,0.396298 C 85.75409,36.163134 83.323301,36.536859 80.567353,38.559429 74.502882,43.0101 73.42137,46.976281 73.41943,64.772718 l -0.0018,16.115482 19.348087,0 19.348091,0 -0.61164,2.544549 c -0.3364,1.399503 -1.4933,9.796517 -2.57089,18.660031 l -1.95925,16.11548 -16.777198,0 -16.7772,0 0,49.76008 0,49.76009 -19.790942,0 -19.790942,0 0,-49.76009 z"
     id="path3345"
     inkscape:connector-curvature="0" /></svg>